HIERARCHY
ROOT Hips
{
  OFFSET 0 89.5177 0.535
  CHANNELS 6 Xposition Yposition Zposition Zrotation Xrotation Yrotation
  JOINT Spine
  {
    OFFSET 12.0259 -0.162855 1.69034e-005
    CHANNELS 3 Zrotation Xrotation Yrotation
    JOINT Spine1
    {
      OFFSET 15.3169 -0.0121922 0
      CHANNELS 3 Zrotation Xrotation Yrotation
      JOINT Spine2
      {
        OFFSET 15.3176 -0.0121908 0
        CHANNELS 3 Zrotation Xrotation Yrotation
        JOINT Neck
        {
          OFFSET 19.9142 1.56338 0
          CHANNELS 3 Zrotation Xrotation Yrotation
          JOINT Head
          {
            OFFSET 6.92651 0 0
            CHANNELS 3 Zrotation Xrotation Yrotation
            End Site
            {
              OFFSET 20.7666 0 0
            }
          }
          JOINT LeftShoulder
          {
            OFFSET -6.20654 0.708824 7.28219
            CHANNELS 3 Zrotation Xrotation Yrotation
            JOINT LeftArm
            {
              OFFSET 14.108 0 -1.52588e-005
              CHANNELS 3 Zrotation Xrotation Yrotation
              JOINT LeftForeArm
              {
                OFFSET 28.5802 0 0
                CHANNELS 3 Zrotation Xrotation Yrotation
                JOINT LeftHand
                {
                  OFFSET 27.092 0 0
                  CHANNELS 3 Zrotation Xrotation Yrotation
                  End Site
                  {
                    OFFSET 9.55928 -0.186424 0.145352
                  }
                }
              }
            }
          }
          JOINT RightShoulder
          {
            OFFSET -6.20654 0.708866 -7.28218
            CHANNELS 3 Zrotation Xrotation Yrotation
            JOINT RightArm
            {
              OFFSET 14.108 0 1.52588e-005
              CHANNELS 3 Zrotation Xrotation Yrotation
              JOINT RightForeArm
              {
                OFFSET 28.5802 0 0
                CHANNELS 3 Zrotation Xrotation Yrotation
                JOINT RightHand
                {
                  OFFSET 27.092 0 0
                  CHANNELS 3 Zrotation Xrotation Yrotation
                  End Site
                  {
                    OFFSET 9.55929 -0.186417 -0.145354
                  }
                }
              }
            }
          }
        }
      }
    }
  }
  JOINT LeftUpLeg
  {
    OFFSET 0.005 -0.535 8.837
    CHANNELS 3 Zrotation Xrotation Yrotation
    JOINT LeftLeg
    {
      OFFSET 39.9035 0 0
      CHANNELS 3 Zrotation Xrotation Yrotation
      JOINT LeftFoot
      {
        OFFSET 39.6689 0 0
        CHANNELS 3 Zrotation Xrotation Yrotation
        JOINT LeftToe
        {
          OFFSET 10.1624 13.6296 0
          CHANNELS 3 Zrotation Xrotation Yrotation
          End Site
          {
            OFFSET 8.38147 0 0
          }
        }
      }
    }
  }
  JOINT RightUpLeg
  {
    OFFSET 0.005 -0.535 -8.837
    CHANNELS 3 Zrotation Xrotation Yrotation
    JOINT RightLeg
    {
      OFFSET 39.9035 0 0
      CHANNELS 3 Zrotation Xrotation Yrotation
      JOINT RightFoot
      {
        OFFSET 39.6689 0 0
        CHANNELS 3 Zrotation Xrotation Yrotation
        JOINT RightToe
        {
          OFFSET 10.1624 13.6296 0
          CHANNELS 3 Zrotation Xrotation Yrotation
          End Site
          {
            OFFSET 8.38147 0 0
          }
        }
      }
    }
  }
}
MOTION
Frames:	12
Frame Time:	0.0333333
171.725 87.1549 -244.704 -102.812 89.0163 -166.97 1.29767 -1.84143 -1.29232 2.55546 -3.71074 -2.54441 2.55546 -3.71074 -2.54442 -8.30748e-012 -9.0191e-006 -5.27751e-005 19.5181 -26.0806 16.3113 -173.545 -19.5087 -71.2833 -27.5235 1.36997 58.9784 -24.9847 0 2.38542e-015 -28.0509 -58.5213 -31.9843 -175.667 14.2479 72.8874 -31.804 -8.26187 -60.9507 -27.9148 -1.59028e-015 1.59028e-015 -67.9757 71.4737 71.2067 -12.7232 23.3969 -172.534 -27.4129 0 3.18055e-015 16.6779 5.00074 -2.64838 90 2.48481e-017 3.18055e-015 -17.1134 -8.01548 175.229 -27.4461 1.59028e-015 -1.98785e-016 11.1639 -4.08107 2.05485 90 0 -7.95139e-016 
171.547 87.1292 -244.926 -142.783 89.4936 -126.977 1.31218 -1.93917 -1.32387 2.58143 -3.90719 -2.60506 2.58143 -3.90719 -2.60507 -8.30748e-012 -9.0191e-006 -5.27751e-005 20.8985 -25.8783 16.7586 -173.639 -19.4274 -71.4703 -27.4671 1.25719 58.8643 -24.8993 0 7.95139e-016 -28.1265 -58.4399 -32.056 -175.586 14.3792 72.7351 -31.5113 -8.21273 -60.9988 -28.4671 -3.18055e-015 3.18055e-015 -68.2415 71.6221 71.4802 -13.1602 23.9299 -172.25 -27.5281 6.36111e-015 1.59028e-015 16.5778 4.94112 -2.73109 90 -2.48481e-017 -6.36111e-015 -17.5637 -7.30854 175.533 -27.6132 -1.59028e-015 -1.98785e-016 11.1019 -3.95388 1.91143 90 0 -7.95139e-016 
171.333 87.0867 -245.16 152.259 89.2138 -62.1198 1.29963 -2.03066 -1.32319 2.55442 -4.08983 -2.60225 2.55442 -4.08983 -2.60226 -8.30748e-012 -9.0191e-006 -5.27751e-005 21.8764 -25.3324 16.8374 -173.686 -19.4173 -71.59 -27.4385 1.04365 58.6524 -24.6785 0 1.59028e-015 -28.2384 -58.2687 -32.1575 -175.498 14.5086 72.5546 -31.3667 -8.4818 -61.0128 -28.9513 1.59028e-015 -7.95139e-016 -68.5407 71.6707 71.7948 -13.8455 24.2264 -171.805 -27.8462 0 -2.38542e-015 16.5908 4.68517 -2.84077 90 0 -0 -18.1723 -6.88765 175.932 -27.8874 -3.18056e-015 -7.95139e-016 11.28 -3.97579 1.73285 90 -6.21202e-018 2.38542e-015 
171.121 87.0298 -245.37 133.817 88.6555 -43.8349 1.29977 -2.1072 -1.30972 2.55361 -4.24258 -2.57372 2.55361 -4.24258 -2.57373 -8.30748e-012 -9.0191e-006 -5.27751e-005 22.531 -24.4389 16.6887 -173.728 -19.4257 -71.7143 -27.6081 0.773391 58.369 -24.3779 0 -1.59028e-015 -28.242 -58.0754 -32.1418 -175.426 14.6032 72.3964 -31.1083 -8.71557 -61.1038 -29.0116 0 2.38542e-015 -68.6968 71.4552 71.974 -14.5173 24.2025 -171.337 -28.3032 0 -2.38542e-015 16.7127 4.22544 -2.96323 90 -2.48481e-017 -3.18055e-015 -18.7545 -6.62135 176.332 -28.3369 1.59028e-015 9.93923e-016 11.7992 -4.11444 1.5836 90 0 -7.95139e-016 
170.943 86.9526 -245.565 125.64 88.0106 -35.7706 1.2905 -2.1498 -1.2834 2.53518 -4.32699 -2.52052 2.53518 -4.32699 -2.52053 -8.30748e-012 -9.0191e-006 -5.27751e-005 22.8639 -23.424 16.3842 -173.739 -19.4484 -71.7622 -27.7905 0.476817 58.1241 -24.1363 -3.18055e-015 -7.95139e-016 -28.1662 -58.0044 -32.054 -175.359 14.7048 72.2657 -30.8792 -9.03751 -61.0827 -28.7136 1.59028e-015 -3.97569e-015 -68.5931 71.4372 71.8649 -15.131 24.0448 -170.977 -28.8405 0 -7.95139e-016 16.944 3.63431 -3.06843 90 -4.96962e-017 -3.18055e-015 -19.4001 -6.14815 176.68 -28.9509 3.18056e-015 9.93923e-016 12.4645 -4.14092 1.50598 90 -4.96962e-017 -7.95139e-016 
170.777 86.9063 -245.673 117.951 87.4516 -28.2663 1.32085 -2.17581 -1.23231 2.59739 -4.3785 -2.41656 2.59739 -4.3785 -2.41657 -8.30748e-012 -9.0191e-006 -5.27751e-005 22.7353 -22.4513 16.2217 -173.772 -19.4489 -71.8524 -27.859 0.120935 58.0251 -23.9733 6.36111e-015 -1.59028e-015 -28.2509 -57.9004 -32.1329 -175.338 14.6872 72.1698 -30.3269 -9.15301 -61.0728 -27.9742 0 -5.1684e-015 -68.1371 71.5559 71.3735 -15.5207 24.1719 -170.482 -29.2873 -6.36111e-015 -1.59028e-015 17.2527 3.35537 -3.19974 90 4.96962e-017 -0 -19.673 -5.78737 177.101 -29.3426 -1.59028e-015 1.39149e-015 13.0747 -4.25509 1.42859 90 2.48481e-017 -2.38542e-015 
170.66 86.8852 -245.765 114.103 86.7971 -24.4685 1.32726 -2.18421 -1.20134 2.61125 -4.39474 -2.35413 2.61125 -4.39474 -2.35414 -8.30589e-012 -9.0191e-006 -5.27751e-005 22.1242 -21.5085 15.9229 -173.783 -19.5045 -71.9293 -28.0754 -0.070798 57.9658 -24.0096 6.36111e-015 -0 -28.5732 -57.859 -32.4698 -175.249 14.7537 71.9264 -29.9558 -9.26516 -60.8951 -26.9207 3.97569e-015 -4.57205e-015 -67.5022 71.554 70.6994 -15.8077 24.6365 -170.152 -29.433 0 2.38542e-015 17.339 3.25815 -3.28795 90 4.96962e-017 6.36111e-015 -20.0523 -5.67765 177.317 -29.7149 -4.77083e-015 -7.95139e-016 13.7073 -4.57377 1.35125 90 2.48481e-017 -0 
170.576 86.8941 -245.774 111.849 86.2173 -22.2299 1.32454 -2.23118 -1.15181 2.60691 -4.48751 -2.25409 2.6069 -4.48751 -2.2541 -8.30907e-012 -9.0191e-006 -5.27751e-005 21.0931 -20.5313 15.2217 -173.806 -19.5238 -72.0089 -28.2416 -0.0764228 57.9998 -24.1946 -6.36111e-015 -1.59028e-015 -28.5899 -57.9123 -32.4932 -175.27 14.6198 71.8512 -29.4679 -9.16884 -60.8469 -25.5578 -2.38542e-015 6.36111e-015 -66.6631 71.5062 69.8111 -15.8966 25.1728 -169.924 -29.3317 0 7.95139e-016 17.2879 3.25347 -3.3718 90 -2.48481e-017 -3.18055e-015 -20.2842 -5.72161 177.438 -29.9434 -1.59028e-015 3.97569e-016 14.2919 -4.99634 1.30256 90 0 -7.95139e-016 
170.514 86.9107 -245.766 110.73 85.7155 -21.1238 1.3026 -2.26027 -1.08749 2.56504 -4.54383 -2.12559 2.56504 -4.54383 -2.1256 -8.30589e-012 -9.0191e-006 -5.27751e-005 20.0761 -19.8831 14.6021 -173.825 -19.559 -72.0907 -28.6157 0.0183391 58.1527 -24.3267 -3.18055e-015 3.18055e-015 -28.6566 -57.9645 -32.5693 -175.197 14.6857 71.6622 -29.1552 -9.23856 -60.639 -24.3508 7.95139e-016 -9.0447e-015 -66.1765 71.2078 69.3087 -15.8991 25.5056 -169.801 -29.122 0 1.59028e-015 17.0876 3.15591 -3.43768 90 0 -3.18055e-015 -20.4097 -5.56983 177.592 -29.9351 3.18056e-015 1.59028e-015 14.4472 -5.19105 1.25799 90 -4.96962e-017 -0 
170.464 86.9229 -245.732 109.978 85.3172 -20.3769 1.27726 -2.2828 -1.03344 2.51612 -4.58725 -2.01793 2.51612 -4.58725 -2.01794 -8.30907e-012 -9.0191e-006 -5.27751e-005 19.1292 -19.4522 14.0995 -173.852 -19.6393 -72.2281 -29.1358 0.175632 58.3639 -24.4692 -1.27222e-014 -0 -28.6182 -57.996 -32.532 -175.117 14.7138 71.4108 -28.329 -9.08318 -60.4089 -23.3183 3.97569e-016 1.49089e-016 -65.4005 71.4373 68.4742 -15.8347 25.6934 -169.745 -28.8808 0 1.59028e-015 16.794 3.02374 -3.49429 90 4.96962e-017 6.36111e-015 -20.441 -5.25149 177.779 -29.7778 -1.59028e-015 1.19271e-015 14.2263 -5.18443 1.19122 90 0 -7.95139e-016 
170.446 86.9266 -245.655 109.402 84.9508 -19.7503 1.25303 -2.30774 -0.978891 2.46943 -4.63555 -1.90918 2.46943 -4.63555 -1.90919 -8.3043e-012 -9.0191e-006 -5.27751e-005 18.126 -19.0875 13.5035 -173.872 -19.6592 -72.3 -29.6742 0.406249 58.5526 -24.7207 6.36111e-015 3.18055e-015 -28.4096 -58.1102 -32.3227 -175.06 14.7581 71.2569 -28.0383 -9.1193 -60.2902 -22.5508 2.18663e-015 -5.46658e-016 -65.0646 71.2773 68.1243 -15.7566 26.1204 -169.704 -28.6679 3.18055e-015 1.59028e-015 16.5972 3.09114 -3.5435 90 -1.2424e-017 -0 -20.4956 -5.0378 177.854 -29.7354 -3.18056e-015 -2.38542e-015 14.1066 -5.30951 1.14557 90 1.49089e-016 1.59028e-015 
170.444 86.9265 -245.553 108.465 84.729 -18.792 1.24279 -2.34833 -0.915218 2.45096 -4.71522 -1.7813 2.45096 -4.71522 -1.78131 -8.30907e-012 -9.0191e-006 -5.27751e-005 17.196 -18.7516 12.8696 -173.871 -19.6797 -72.3154 -30.107 0.492508 58.768 -24.8469 -3.18055e-015 -0 -28.6088 -58.1472 -32.5376 -175.033 14.7774 71.1844 -27.8193 -9.0707 -60.2623 -21.9743 -9.93923e-017 -2.65874e-015 -64.6761 71.2818 67.7116 -15.6068 26.387 -169.68 -28.5246 -6.36111e-015 -7.95139e-016 16.4826 3.12036 -3.58611 90 0 -0 -20.4327 -4.98155 177.886 -29.6614 1.59028e-015 3.97569e-016 13.9195 -5.50268 1.11149 90 -4.96962e-017 -7.95139e-016 
